{"title":"Deceiver.1997.iNTERNAL.DVDRip.XviD-SPRiNTER","uid":5305088,"size":743626919,"categoryP":"video","categoryS":"movies","magnet":"?xt=urn:btih:1c12a28a445f60c5d5c30dba43c4d520a956b0c0&amp;dn=Deceiver.1997.iNTERNAL.DVDRip.XviD-SPRiNTER&amp;tr=udp%3A%2F%2Ftracker.openbittorrent.com%3A80&amp;tr=udp%3A%2F%2Fopen.demonii.com%3A1337&amp;tr=udp%3A%2F%2Ftracker.coppersurfer.tk%3A6969&amp;tr=udp%3A%2F%2Fexodus.desync.com%3A6969","seeders":1,"leechers":1,"uploader":"TvTeam","files":54,"time":1264361620,"description":". \n\nTorrentDay - Your Gateway To The Scene.\n\nwe are the most on-time tracker around the globe, You can download releases whenever they release out by group uploaders. no Wait Time.\n\nTorrentDay is a private tracker torrent website, which is totally free, safe and fast.\n\n\nHigher Speed Download is available at: TorrentDay - Your Gateway To The Scene.\n\n\n.\n\nTorrentday : Clean RAR Scene File - Enjoy and don't forget to leave Thanks\n\n\nEnjoy :)\n\n...................................NFO:....................................\n\n.SPRiNTER proudly presents...\n\n\n\n\n\n\n\nDeceiver.1997.iNTERNAL.DVDRip.XviD-SPRiNTER\n &lt;a href=&quot;\nhttp://www.imdb.com/title/tt0119527/&quot; rel=&quot;nofollow&quot; target=&quot;_NEW&quot;&gt;\nhttp://www.imdb.com/title/tt0119527/&lt;/a&gt;\n\nSubtitles: Norsk, Dansk, Sumoi, Swedish.\n\n\n\nDate: 2010.01\n\n\n\n\n\nDirector: Jonas Pate, Josh Pate\n\nGenre: Crime | Drama | Mystery | Thriller\n\nPlot: Textile company heir Wayland is accused of murder of a prostitute named Elizabeth, whose body was found cut in two in the park. The murder is investigated by tough detective Kennesaw and his less experienced partner Braxton. Wayland is a heavy drinker and compulsive liar, he is prone to memory losses and periods of heavy violence. He is rich enough to access necessary information, and he gets the interrogators' own dark secrets - Kennesaw is angry about affairs his wife had and had let off steam with Elizabeth, and Braxton has gambling debts with Mook, who is demanding payment.\n\n\n\nCast\n\n\n\n Chris Penn ...  Detective Phillip Braxton \n\n Ellen Burstyn ...  Mook \n\n Tim Roth ...  James Walter Wayland \n\n Rene Zellweger ...  Elizabeth \n\n Michael Rooker ...  Detective Edward Kennesaw \n\n Rosanna Arquette ...  Mrs. Kennesaw \n\n Don Winston ...  Warren \n\n Michael Parks ...  Dr. Banyard \n\n Mark Damon ...  Wayland's Father \n\n J.C. Quinn ...  Priest \n\n Jody Wilhelm ...  Mrs. Wayland \n\n Ocie Pouncie ...  Boogie \n\n Bob Hungerford ...  Jebby \n\n Genevieve Butler ...  Mary Kennesaw \n\n Chelsea Butler ...  Chelsea Kennesaw \n\n\n\n\n\nRelease notes:\n\n\n\n\n\nEnjoy!\n\n\n\nFormat                           : AVI\n\nFormat/Info                      : Audio Video Interleave\n\nFile size                        : 702 MiB\n\nDuration                         : 1h 37mn\n\nOverall bit rate                 : 1 005 Kbps\n\nWriting application              : VirtualDubMod 1.5.10.2 (build 2540/release)\n\nWriting library                  : VirtualDubMod build 2540/release\n\n\n\nVideo\n\nID                               : 0\n\nFormat                           : MPEG-4 Visual\n\nFormat profile                   : AdvancedSimple@L5\n\nFormat settings, BVOP            : Yes\n\nFormat settings, QPel            : No\n\nFormat settings, GMC             : No warppoints\n\nFormat settings, Matrix          : Default (H.263)\n\nCodec ID                         : XVID\n\nCodec ID/Hint                    : XviD\n\nDuration                         : 1h 37mn\n\nBit rate                         : 842 Kbps\n\nWidth                            : 640 pixels\n\nHeight                           : 272 pixels\n\nDisplay aspect ratio             : 2.35:1\n\nFrame rate                       : 25.000 fps\n\nResolution                       : 24 bits\n\nColorimetry                      : 4:2:0\n\nScan type                        : Progressive\n\nBits/(Pixel*Frame)               : 0.194\n\nStream size                      : 588 MiB (84%)\n\nWriting library                  : XviD 1.2.1 (UTC 2008-12-04)\n\n\n\nAudio\n\nID                               : 1\n\nFormat                           : MPEG Audio\n\nFormat version                   : Version 1\n\nFormat profile                   : Layer 3\n\nCodec ID                         : 55\n\nCodec ID/Hint                    : MP3\n\nDuration                         : 1h 37mn\n\nBit rate mode                    : Variable\n\nBit rate                         : 150 Kbps\n\nChannel(s)                       : 2 channels\n\nSampling rate                    : 48.0 KHz\n\nResolution                       : 16 bits\n\nStream size                      : 105 MiB (15%)\n\nAlignment                        : Aligned on interleaves\n\nInterleave, duration             : 24 ms (0.60 video frame)\n\nInterleave, preload duration     : 430 ms\n\nWriting library                  : LAME3.89 (alpha)","torrent":{"xt":"urn:btih:1c12a28a445f60c5d5c30dba43c4d520a956b0c0","amp;dn":"Deceiver.1997.iNTERNAL.DVDRip.XviD-SPRiNTER","amp;tr":["udp%3A%2F%2Ftracker.openbittorrent.com%3A80","udp%3A%2F%2Fopen.demonii.com%3A1337","udp%3A%2F%2Ftracker.coppersurfer.tk%3A6969","udp%3A%2F%2Fexodus.desync.com%3A6969"],"infoHash":"1c12a28a445f60c5d5c30dba43c4d520a956b0c0","infoHashBuffer":{"type":"Buffer","data":[28,18,162,138,68,95,96,197,213,195,13,186,67,196,213,32,169,86,176,192]},"announce":[],"urlList":[]}}